<?xml version="1.0" encoding="UTF-8"?>
<svg width="44px" height="44px" viewBox="0 0 44 44" version="1.1" xmlns="http://www.w3.org/2000/svg" xmlns:xlink="http://www.w3.org/1999/xlink" >
    <!-- Generator: Sketch 49 (51002) - http://www.bohemiancoding.com/sketch -->
    <title>Artboard</title>
    <desc>Created with Sketch.</desc>
    <defs></defs>
    <g id="Artboard" stroke="none" stroke-width="1" fill="none" fill-rule="evenodd">
        <g id="Group-5" transform="translate(1.000000, 1.000000)">
            <path d="M27.05,9.175 L27.05,12.85 L24.875,12.85 C24.074996,12.85 23.5333347,13.016665 23.25,13.35 C22.9666653,13.683335 22.825,14.18333 22.825,14.85 L22.825,17.5 L26.925,17.5 L26.375,21.625 L22.825,21.625 L22.825,32.225 L18.55,32.225 L18.55,21.625 L15,21.625 L15,17.5 L18.55,17.5 L18.55,14.45 C18.55,12.716658 19.0333285,11.3750048 20,10.425 C20.9666715,9.47499525 22.2583253,9 23.875,9 C25.2416735,9 26.2999962,9.05833275 27.05,9.175 Z" id="" fill="#FFFFFF"></path>
            <circle id="Oval-3-Copy" stroke="#FFFFFF" cx="21" cy="21" r="21"></circle>
        </g>
    </g>
</svg>